<?xml version="1.0" encoding="utf-8"?>
<!-- Generator: Adobe Illustrator 27.0.0, SVG Export Plug-In . SVG Version: 6.00 Build 0)  -->
<svg version="1.1" id="图层_1" xmlns="http://www.w3.org/2000/svg" xmlns:xlink="http://www.w3.org/1999/xlink" x="0px" y="0px"
	 viewBox="0 0 87 85.1" style="enable-background:new 0 0 87 85.1;" xml:space="preserve">
<style type="text/css">
	.st0{fill:#186EE7;}
	.st1{fill:#FFFFFF;}
</style>
<g>
	<g>
		<circle class="st0" cx="43.5" cy="42.5" r="25.4"/>
	</g>
</g>
<g>
	<g>
		<path class="st1" d="M39.5,54.9h-2.8v-0.6l0,0V42.2h-2.8v12.1l0,0v0.6h-2.8v-0.6l0,0V30.8l0,0v-0.6h2.8v0.6l0,0v10.7h2.8V30.8l0,0
			v-0.6h2.8v0.6l0,0v23.4l0,0V54.9L39.5,54.9z"/>
	</g>
	<g>
		<path class="st1" d="M50.5,51.5c0,1-0.4,1.8-1.2,2.5c-0.9,0.7-1.8,1.1-3,1.1c-1.1,0-2.2-0.4-3-1.1c-0.9-0.7-1.2-1.6-1.2-2.5V33.6
			c0-1,0.4-1.8,1.2-2.5c0.9-0.7,1.8-1.1,3-1.1c1.1,0,2.2,0.4,3,1.1c0.9,0.7,1.2,1.6,1.2,2.5v3.9h-2.8V32c0-0.4-0.1-0.7-0.4-1
			c-0.3-0.3-0.6-0.4-1-0.4s-0.7,0.1-1,0.4s-0.4,0.6-0.4,1v20.9c0,0.4,0.1,0.7,0.4,1c0.3,0.3,0.6,0.4,1,0.4s0.7-0.1,1-0.4
			c0.3-0.3,0.4-0.6,0.4-1v-5.5h2.8C50.5,47.5,50.5,51.5,50.5,51.5z"/>
	</g>
	<g>
		<path class="st1" d="M55.9,54.9h-2.8v-0.6l0,0V30.8l0,0v-0.6h2.8v0.6l0,0v23.4l0,0V54.9z"/>
	</g>
</g>
</svg>
